Coordinates
version=1
nRows=7
nColumns=40
inDegrees=yes

Units are S.I. units (second, meters, Newtons, ...)
Angles are in degrees.

endheader
time	pelvis_tilt	pelvis_list	pelvis_rotation	pelvis_tx	pelvis_ty	pelvis_tz	hip_flexion_r	hip_adduction_r	hip_rotation_r	knee_angle_r	knee_angle_r_beta	ankle_angle_r	subtalar_angle_r	mtp_angle_r	hip_flexion_l	hip_adduction_l	hip_rotation_l	knee_angle_l	knee_angle_l_beta	ankle_angle_l	subtalar_angle_l	mtp_angle_l	lumbar_extension	lumbar_bending	lumbar_rotation	arm_flex_r	arm_add_r	arm_rot_r	elbow_flex_r	pro_sup_r	wrist_flex_r	wrist_dev_r	arm_flex_l	arm_add_l	arm_rot_l	elbow_flex_l	pro_sup_l	wrist_flex_l	wrist_dev_l
     54.19000000	     -6.49400845	     -4.28503697	      2.09851861	      0.89767843	      0.92906905	      0.48558687	     16.02476830	      2.60921017	    -15.43429594	     18.50931021	     18.50931021	     10.23266670	     -1.28145369	     -0.67019478	     27.64267561	     -9.86345618	      1.75656166	     63.81557683	     63.81557683	      9.23230739	    -17.42521646	      7.70313162	     -9.89161802	      6.13560216	      1.11512138	     17.52768654	    -16.27940727	     -1.02186533	     39.60727553	     45.83457260	      0.00000000	      0.00000000	      5.76004454	     -8.84846511	     -6.08626982	     43.24102668	     45.73713979	      0.00000000	      0.00000000
     54.20300000	     -6.72419055	     -4.10015970	      2.35546135	      0.89520690	      0.92954179	      0.48600898	     15.66742656	      2.51402863	    -15.44491957	     17.98306624	     17.98306624	     10.34014225	     -1.33282692	     -0.69783412	     29.28954132	     -9.47464280	      2.02509145	     62.89395861	     62.89395861	      9.72992099	    -17.34982698	      8.73317372	     -9.81820580	      5.86735098	      1.01265110	     20.52269440	    -16.28300262	     -0.83118896	     39.03848412	     45.86250712	      0.00000000	      0.00000000	      5.35043982	     -8.47184588	     -5.74890944	     39.26093462	     45.71870263	      0.00000000	      0.00000000
     54.21600000	     -6.88537094	     -4.01434015	      2.63778705	      0.89288195	      0.93008980	      0.48641112	     15.06832442	      2.57182652	    -15.52172219	     17.13043705	     17.13043705	     10.36247170	     -1.30046954	     -0.59507923	     30.70326159	     -9.18130785	      2.30829154	     61.64024621	     61.64024621	      9.86186026	    -17.37280555	      8.92665568	     -9.92608365	      5.72000547	      0.85832417	     22.93801451	    -16.34331844	     -0.90598776	     40.10283277	     45.83987358	      0.00000000	      0.00000000	      4.08889960	     -8.24468473	     -5.55547321	     37.57405346	     45.68825688	      0.00000000	      0.00000000
     54.22900000	     -7.04396149	     -3.92335222	      2.89641414	      0.89062340	      0.93054981	      0.48682123	     14.49506681	      2.62362852	    -15.57117841	     16.33059525	     16.33059525	     10.38027572	     -1.27782692	     -0.61811535	     31.94075009	     -8.88812901	      2.52812417	     60.03928191	     60.03928191	      9.96319909	    -17.35673381	      9.15694154	    -10.00994208	      5.55200757	      0.72544118	     25.35131041	    -16.39948159	     -0.83506987	     41.00154434	     45.81534427	      0.00000000	      0.00000000	      3.13534855	     -8.00249722	     -5.28537215	     35.24995125	     45.65512090	      0.00000000	      0.00000000
     54.24200000	     -7.20318074	     -3.82370946	      3.14339117	      0.88843013	      0.93085836	      0.48714966	     13.93356263	      2.65875972	    -15.59951813	     15.54893210	     15.54893210	     10.40297668	     -1.23074579	     -0.69292545	     33.02102042	     -8.55426090	      2.74888267	     58.10443064	     58.10443064	     10.08635405	    -17.32071235	      9.34980759	    -10.07481388	      5.36725085	      0.72258155	     27.61701976	    -16.52868357	     -0.75224394	     41.88223084	     45.79014496	      0.00000000	      0.00000000	      2.27373804	     -7.75061609	     -5.01928631	     33.00086229	     45.62256948	      0.00000000	      0.00000000
     54.25500000	     -7.41234250	     -3.71488167	      3.36241208	      0.88626286	      0.93094325	      0.48739232	     13.47224141	      2.66177314	    -15.64506261	     14.83697780	     14.83697780	     10.33637601	     -1.22117948	     -1.15362509	     33.96593468	     -8.21408826	      2.89734595	     55.74909224	     55.74909224	     10.13758847	    -17.19909021	      9.22808705	    -10.06372087	      5.19512607	      0.98458203	     29.65476225	    -16.90471538	     -0.41109460	     42.67002847	     45.75079098	      0.00000000	      0.00000000	      2.05429638	     -7.40794431	     -4.64752957	     29.49729176	     45.61216225	      0.00000000	      0.00000000
     54.26800000	     -7.58897260	     -3.59412166	      3.56248704	      0.88420920	      0.93099407	      0.48758277	     12.97946418	      2.65785141	    -15.63672216	     14.15618377	     14.15618377	     10.44138201	     -1.17492954	     -1.15212304	     34.67577737	     -7.83768227	      3.03478478	     52.97169766	     52.97169766	     10.30099628	    -17.00856346	      9.37809897	    -10.12581699	      4.96580625	      0.98647984	     31.59983910	    -16.97981427	     -0.52426341	     43.85397518	     45.72283806	      0.00000000	      0.00000000	      0.88482255	     -7.27136426	     -4.55008387	     28.48939021	     45.58753188	      0.00000000	      0.00000000
